<svg xmlns="http://www.w3.org/2000/svg" viewBox="0 0 293.17 146.69"><defs><style>.cls-1{fill:#fff;}.cls-1,.cls-2{stroke:#fff;stroke-miterlimit:10;}.cls-2{fill:none;}</style></defs><g id="Layer_2" data-name="Layer 2"><g id="Layer_1-2" data-name="Layer 1"><polygon class="cls-1" points="86.98 45.15 109.22 113.58 112.04 109.26 113.5 104.25 116.48 97.85 119.83 94.07 122.93 91.05 125.7 86.21 129.13 81.17 132.04 78.48 135.85 77.02 138.59 74.71 141.47 70.94 145.24 68.11 146.8 67.21 145.56 64.96 142.91 63.7 140.84 62.76 137.35 59.98 134.24 58.3 129.87 56.3 126.7 53.96 121.98 53.02 118.21 50.51 113.19 49.25 108.79 47.36 103.44 47.99 98.41 46.42 94.64 44.53 91.19 44.53 86.98 45.15"/><polygon class="cls-1" points="183.19 115.19 180.2 113.91 179 112.46 177.43 108.06 174.11 105.69 172.72 104.29 172.32 100.34 170.83 94.23 168.02 92.72 166.43 91.72 163.91 87.63 160.78 85.61 157.2 83.15 155.12 80.72 154.63 77.17 152.38 73.75 150.09 71.6 148.81 68.82 144.93 71.31 143.49 72.54 141.49 75.16 140.6 76.31 139.09 77.89 134.06 80.09 132.19 81.81 130.13 84.27 127.71 87.82 125.94 90.92 124.94 92.66 121.85 95.68 119.29 98.31 117.16 102.33 115.52 105.86 114.53 109.25 113.63 111.83 111.23 115.19 183.19 115.19"/><polygon class="cls-1" points="208.23 45.95 202.24 46.18 197.53 45.96 193.06 48.54 191.24 49.1 187.1 47.78 182.29 46.94 178.04 47.85 175.46 50.24 173.33 51.93 169.25 52.8 166.13 54.02 162.96 56.02 159.69 58.29 157.93 60.1 157.08 61.86 155.73 65.76 153.29 67.24 151.63 68.01 152.9 70.79 155.19 72.94 156.99 74.87 157.44 76.36 157.93 79.9 160.01 82.34 162.33 83.99 164.56 85.42 166.73 86.82 167.94 88.78 169.24 90.9 170.83 91.91 173.64 93.42 174.9 97.5 175.53 103.47 178.2 105.79 180.24 107.25 181.81 111.64 183.02 113.09 186 114.38 208.23 45.95"/><polygon class="cls-1" points="148.91 1.44 150 6.11 149.91 8.86 147.63 12.35 147.08 13.57 146.76 17.97 147.7 20.49 148.33 22.68 147.47 24.92 147.45 28.51 149.41 31.63 151.16 33.69 152.18 37.12 150.52 40.87 149.41 43.9 148.96 46.88 149.62 50.11 149.41 53.54 148.65 56.94 149.47 60.18 150.85 63.61 150.52 65.79 154.62 63.54 155.97 59.64 158.58 56.08 161.85 53.8 165.02 51.8 168.15 50.59 172.22 49.71 174.35 48.02 176.93 45.63 181.18 44.72 183.85 45 186 45.56 190.13 46.88 191.96 46.32 194.83 44.05 198.51 43.4 202.71 44.06 207.13 43.73 148.91 1.44"/><polygon class="cls-1" points="146.35 0.85 147.44 5.52 147.34 8.27 145.06 11.76 144.2 14.24 144.2 17.38 145.14 19.9 145.77 22.1 144.91 24.33 144.89 27.93 146.84 31.05 148.6 33.1 149.62 36.53 147.96 40.28 146.84 43.31 146.4 46.3 147.06 49.52 146.84 52.95 146.09 56.35 146.91 59.59 148.29 63.03 147.96 65.2 146.72 62.95 142 60.75 138.51 57.98 135.4 56.29 131.03 54.29 127.86 51.95 123.14 51.01 119.37 48.5 114.34 47.24 109.94 45.35 104.6 45.98 99.57 44.41 95.8 42.52 88.14 43.14 146.35 0.85"/><path class="cls-2" d="M172.63,19.27l9.14-13.13h87.12"/><path class="cls-2" d="M114.7,23.36q-2.83-4.09-5.69-8.18H21.89"/><path class="cls-2" d="M197.31,78.45,206.05,91h87.12"/><path class="cls-2" d="M0,86.34H87.12L96,73.6"/><path class="cls-2" d="M88,146.19h55.84q4.52-15.18,9.05-30.37"/></g></g></svg>