<svg xmlns="http://www.w3.org/2000/svg" viewBox="0 0 296.17 147.69"><defs><style>.cls-1{fill:#fff;}.cls-1,.cls-2{stroke:#fff;stroke-miterlimit:10;}.cls-2{fill:none;}</style></defs><g id="Layer_2" data-name="Layer 2"><g id="Layer_1-2" data-name="Layer 1"><polygon class="cls-1" points="86.98 46.15 109.22 114.58 112.04 110.26 113.5 105.25 116.48 98.85 119.83 95.07 122.93 92.05 125.7 87.21 129.13 82.17 132.04 79.48 135.85 78.02 138.59 75.71 141.47 71.94 145.24 69.11 146.8 68.21 145.56 65.96 142.91 64.69 140.84 63.76 137.35 60.98 134.24 59.3 129.87 57.3 126.7 54.96 121.98 54.02 118.21 51.51 113.19 50.25 108.79 48.36 103.44 48.99 98.41 47.42 94.64 45.53 91.19 45.53 86.98 46.15"/><polygon class="cls-1" points="184.19 117.19 181.2 115.91 180 114.46 178.43 110.06 175.11 107.69 173.72 106.29 173.32 102.34 171.83 96.23 169.02 94.72 167.43 93.72 164.91 89.63 161.78 87.61 158.2 85.15 156.12 82.72 155.63 79.17 153.38 75.75 151.09 73.6 149.81 70.82 145.93 73.31 144.49 74.54 142.49 77.16 141.6 78.31 140.09 79.89 135.06 82.09 133.19 83.81 131.13 86.27 128.71 89.82 126.94 92.92 125.94 94.66 122.85 97.68 120.29 100.31 118.16 104.33 116.52 107.86 115.53 111.25 114.63 113.83 112.23 117.19 184.19 117.19"/><polygon class="cls-1" points="211.23 47.95 205.24 48.18 200.53 47.96 196.06 50.54 194.24 51.1 190.1 49.78 185.29 48.94 181.04 49.85 178.46 52.24 176.33 53.93 172.25 54.8 169.13 56.02 165.96 58.02 162.69 60.29 160.93 62.1 160.08 63.86 158.73 67.76 156.29 69.24 154.63 70.01 155.9 72.79 158.19 74.94 159.99 76.87 160.44 78.36 160.93 81.9 163.01 84.34 165.33 85.99 167.56 87.42 169.73 88.82 170.94 90.78 172.24 92.9 173.83 93.91 176.64 95.42 177.9 99.5 178.53 105.47 181.2 107.79 183.24 109.25 184.81 113.64 186.02 115.09 189 116.38 211.23 47.95"/><polygon class="cls-1" points="150.91 2.44 152 7.11 151.91 9.86 149.63 13.35 149.08 14.57 148.76 18.97 149.7 21.49 150.33 23.68 149.47 25.92 149.45 29.51 151.41 32.63 153.16 34.69 154.18 38.12 152.52 41.87 151.41 44.9 150.96 47.88 151.62 51.11 151.41 54.54 150.65 57.94 151.47 61.18 152.85 64.61 152.52 66.79 156.62 64.54 157.97 60.64 160.58 57.08 163.85 54.8 167.02 52.8 170.15 51.59 174.22 50.71 176.35 49.02 178.93 46.63 183.18 45.72 185.85 46 188 46.56 192.13 47.88 193.96 47.32 196.83 45.05 200.51 44.4 204.71 45.06 209.13 44.73 150.91 2.44"/><polygon class="cls-1" points="147.35 0.85 148.44 5.52 148.34 8.27 146.06 11.76 145.2 14.24 145.2 17.38 146.14 19.9 146.77 22.1 145.91 24.33 145.89 27.93 147.84 31.05 149.6 33.1 150.62 36.53 148.96 40.28 147.84 43.31 147.4 46.3 148.06 49.52 147.84 52.95 147.09 56.35 147.91 59.59 149.29 63.03 148.96 65.2 147.72 62.95 143 60.75 139.51 57.98 136.4 56.29 132.03 54.29 128.86 51.95 124.14 51.01 120.37 48.5 115.34 47.24 110.94 45.35 105.6 45.98 100.57 44.41 96.8 42.52 89.14 43.14 147.35 0.85"/><path class="cls-2" d="M174.63,20.27l9.14-13.13h87.12"/><path class="cls-2" d="M115.7,24.36q-2.83-4.09-5.69-8.18H22.89"/><path class="cls-2" d="M200.31,80.45,209.05,93h87.12"/><path class="cls-2" d="M0,87.34H87.12L96,74.6"/><path class="cls-2" d="M90,147.19h55.84q4.52-15.18,9.05-30.37"/></g></g></svg>