<svg xmlns="http://www.w3.org/2000/svg" viewBox="0 0 297.17 149.69"><defs><style>.cls-1{fill:#fff;}.cls-1,.cls-2{stroke:#fff;stroke-miterlimit:10;}.cls-2{fill:none;}</style></defs><g id="Layer_2" data-name="Layer 2"><g id="Layer_1-2" data-name="Layer 1"><polygon class="cls-1" points="86.98 48.15 109.22 116.58 112.04 112.26 113.5 107.25 116.48 100.85 119.83 97.07 122.93 94.05 125.7 89.21 129.13 84.17 132.04 81.48 135.85 80.02 138.59 77.71 141.47 73.94 145.24 71.11 146.8 70.21 145.56 67.96 142.91 66.69 140.84 65.76 137.35 62.98 134.24 61.3 129.87 59.3 126.7 56.96 121.98 56.02 118.21 53.51 113.19 52.25 108.79 50.36 103.44 50.99 98.41 49.42 94.64 47.53 91.19 47.53 86.98 48.15"/><polygon class="cls-1" points="185.19 119.19 182.2 117.91 181 116.46 179.43 112.06 176.11 109.69 174.72 108.29 174.32 104.34 172.83 98.23 170.02 96.72 168.43 95.72 165.91 91.63 162.78 89.61 159.2 87.15 157.12 84.72 156.63 81.17 154.38 77.75 152.09 75.6 150.81 72.82 146.93 75.31 145.49 76.54 143.49 79.16 142.6 80.31 141.09 81.89 136.06 84.09 134.19 85.81 132.13 88.27 129.71 91.82 127.94 94.92 126.94 96.66 123.85 99.68 121.29 102.31 119.16 106.33 117.52 109.86 116.53 113.25 115.63 115.83 113.23 119.19 185.19 119.19"/><polygon class="cls-1" points="212.23 48.95 206.24 49.18 201.53 48.96 197.06 51.54 195.24 52.1 191.1 50.78 186.29 49.94 182.04 50.85 179.46 53.24 177.33 54.93 173.25 55.8 170.13 57.02 166.96 59.02 163.69 61.29 161.93 63.1 161.08 64.86 159.73 68.76 157.29 70.24 155.63 71.01 156.9 73.79 159.19 75.94 160.99 77.87 161.44 79.36 161.93 82.9 164.01 85.34 166.33 86.99 168.56 88.42 170.73 89.82 171.94 91.78 173.24 93.9 174.83 94.91 177.64 96.42 178.9 100.5 179.53 106.47 182.2 108.79 184.24 110.25 185.81 114.64 187.02 116.09 190 117.38 212.23 48.95"/><polygon class="cls-1" points="151.91 1.44 153 6.11 152.91 8.86 150.63 12.35 150.08 13.57 149.76 17.97 150.7 20.49 151.33 22.68 150.47 24.92 150.45 28.51 152.41 31.63 154.16 33.69 155.18 37.12 153.52 40.87 152.41 43.9 151.96 46.88 152.62 50.11 152.41 53.54 151.65 56.94 152.47 60.18 153.85 63.61 153.52 65.79 157.62 63.54 158.97 59.64 161.58 56.08 164.85 53.8 168.02 51.8 171.15 50.59 175.22 49.71 177.35 48.02 179.93 45.63 184.18 44.72 186.85 45 189 45.56 193.13 46.88 194.96 46.32 197.83 44.05 201.51 43.4 205.71 44.06 210.13 43.73 151.91 1.44"/><polygon class="cls-1" points="146.35 0.85 147.44 5.52 147.34 8.27 145.06 11.76 144.2 14.24 144.2 17.38 145.14 19.9 145.77 22.1 144.91 24.33 144.89 27.93 146.84 31.05 148.6 33.1 149.62 36.53 147.96 40.28 146.84 43.31 146.4 46.3 147.06 49.52 146.84 52.95 146.09 56.35 146.91 59.59 148.29 63.03 147.96 65.2 146.72 62.95 142 60.75 138.51 57.98 135.4 56.29 131.03 54.29 127.86 51.95 123.14 51.01 119.37 48.5 114.34 47.24 109.94 45.35 104.6 45.98 99.57 44.41 95.8 42.52 88.14 43.14 146.35 0.85"/><path class="cls-2" d="M175.63,19.27l9.14-13.13h87.12"/><path class="cls-2" d="M114.7,24.36q-2.83-4.09-5.69-8.18H21.89"/><path class="cls-2" d="M201.31,81.45,210.05,94h87.12"/><path class="cls-2" d="M0,89.34H87.12L96,76.6"/><path class="cls-2" d="M91,149.19h55.84q4.52-15.18,9.05-30.37"/></g></g></svg>